<?xml version="1.0" encoding="UTF-8" standalone="no"?>
<!-- Generator: Adobe Illustrator 19.0.0, SVG Export Plug-In . SVG Version: 6.00 Build 0)  -->

<svg
   xmlns:dc="http://purl.org/dc/elements/1.1/"
   xmlns:cc="http://creativecommons.org/ns#"
   xmlns:rdf="http://www.w3.org/1999/02/22-rdf-syntax-ns#"
   xmlns:svg="http://www.w3.org/2000/svg"
   xmlns="http://www.w3.org/2000/svg"
   xmlns:sodipodi="http://sodipodi.sourceforge.net/DTD/sodipodi-0.dtd"
   xmlns:inkscape="http://www.inkscape.org/namespaces/inkscape"
   version="1.1"
   id="Capa_1"
   x="0px"
   y="0px"
   viewBox="0 0 486.392 486.392"
   style="enable-background:new 0 0 486.392 486.392;"
   xml:space="preserve"
   width="512px"
   height="512px"
   inkscape:version="0.91 r13725"
   sodipodi:docname="pinterest-grey.svg"><metadata
     id="metadata75"><rdf:RDF><cc:Work
         rdf:about=""><dc:format>image/svg+xml</dc:format><dc:type
           rdf:resource="http://purl.org/dc/dcmitype/StillImage" /></cc:Work></rdf:RDF></metadata><defs
     id="defs73" /><sodipodi:namedview
     pagecolor="#ffffff"
     bordercolor="#666666"
     borderopacity="1"
     objecttolerance="10"
     gridtolerance="10"
     guidetolerance="10"
     inkscape:pageopacity="0"
     inkscape:pageshadow="2"
     inkscape:window-width="1089"
     inkscape:window-height="565"
     id="namedview71"
     showgrid="false"
     inkscape:zoom="0.4609375"
     inkscape:cx="256"
     inkscape:cy="256"
     inkscape:window-x="20"
     inkscape:window-y="43"
     inkscape:window-maximized="0"
     inkscape:current-layer="Capa_1" /><g
     id="g3"
     transform="matrix(0.87472581,0,0,0.87472581,29.435674,31.790854)"><g
       id="g5"><g
         id="g7"><path
           d="M 430.149,135.248 C 416.865,39.125 321.076,-9.818 218.873,1.642 138.071,10.701 57.512,76.03 54.168,169.447 c -2.037,57.029 14.136,99.801 68.399,111.84 23.499,-41.586 -7.569,-50.676 -12.433,-80.802 C 90.222,77.367 252.16,-6.718 336.975,79.313 c 58.732,59.583 20.033,242.77 -74.57,223.71 -90.621,-18.179 44.383,-164.005 -27.937,-192.611 -58.793,-23.286 -90.013,71.135 -62.137,118.072 -16.355,80.711 -51.557,156.709 -37.3,257.909 46.207,-33.561 61.802,-97.734 74.57,-164.704 23.225,14.136 35.659,28.758 65.268,31.038 109.195,8.48 170.267,-109.014 155.28,-217.479 z"
           id="path9"
           inkscape:connector-curvature="0"
           style="fill:#a3a3a3" /></g></g><g
       id="g11" /><g
       id="g13" /><g
       id="g15" /><g
       id="g17" /><g
       id="g19" /><g
       id="g21" /><g
       id="g23" /><g
       id="g25" /><g
       id="g27" /><g
       id="g29" /><g
       id="g31" /><g
       id="g33" /><g
       id="g35" /><g
       id="g37" /><g
       id="g39" /></g><g
     id="g41" /><g
     id="g43" /><g
     id="g45" /><g
     id="g47" /><g
     id="g49" /><g
     id="g51" /><g
     id="g53" /><g
     id="g55" /><g
     id="g57" /><g
     id="g59" /><g
     id="g61" /><g
     id="g63" /><g
     id="g65" /><g
     id="g67" /><g
     id="g69" /></svg>