<?xml version="1.0" encoding="UTF-8" standalone="no"?>
<!-- Generator: Adobe Illustrator 16.0.0, SVG Export Plug-In . SVG Version: 6.00 Build 0)  -->

<svg
   xmlns:osb="http://www.openswatchbook.org/uri/2009/osb"
   xmlns:dc="http://purl.org/dc/elements/1.1/"
   xmlns:cc="http://creativecommons.org/ns#"
   xmlns:rdf="http://www.w3.org/1999/02/22-rdf-syntax-ns#"
   xmlns:svg="http://www.w3.org/2000/svg"
   xmlns="http://www.w3.org/2000/svg"
   xmlns:sodipodi="http://sodipodi.sourceforge.net/DTD/sodipodi-0.dtd"
   xmlns:inkscape="http://www.inkscape.org/namespaces/inkscape"
   version="1.1"
   id="Capa_1"
   x="0px"
   y="0px"
   width="512px"
   height="512px"
   viewBox="0 0 512 512"
   style="enable-background:new 0 0 512 512;"
   xml:space="preserve"
   inkscape:version="0.91 r13725"
   sodipodi:docname="dribbble.svg"><metadata
     id="metadata43"><rdf:RDF><cc:Work
         rdf:about=""><dc:format>image/svg+xml</dc:format><dc:type
           rdf:resource="http://purl.org/dc/dcmitype/StillImage" /><dc:title></dc:title></cc:Work></rdf:RDF></metadata><defs
     id="defs41"><linearGradient
       id="linearGradient6006"
       osb:paint="solid"><stop
         style="stop-color:#a3a3a3;stop-opacity:1;"
         offset="0"
         id="stop6008" /></linearGradient></defs><sodipodi:namedview
     pagecolor="#ffffff"
     bordercolor="#666666"
     borderopacity="1"
     objecttolerance="10"
     gridtolerance="10"
     guidetolerance="10"
     inkscape:pageopacity="0"
     inkscape:pageshadow="2"
     inkscape:window-width="1686"
     inkscape:window-height="731"
     id="namedview39"
     showgrid="false"
     showguides="true"
     inkscape:guide-bbox="true"
     inkscape:zoom="0.4609375"
     inkscape:cx="180.0678"
     inkscape:cy="256"
     inkscape:window-x="175"
     inkscape:window-y="169"
     inkscape:window-maximized="0"
     inkscape:current-layer="Capa_1"><sodipodi:guide
       position="574.91525,368.81356"
       orientation="0,1"
       id="guide4554" /><sodipodi:guide
       position="384,175.72881"
       orientation="1,0"
       id="guide4556" /><sodipodi:guide
       position="572.74576,143.18644"
       orientation="0,1"
       id="guide4558" /><sodipodi:guide
       position="130.16949,236.47458"
       orientation="1,0"
       id="guide4560" /></sodipodi:namedview><g
     id="g3"
     style="fill:#ffccff;fill-opacity:1;stroke:#a3a3a3;stroke-opacity:0"><g
       id="g6168"
       transform="translate(0.5,-0.5)"><g
         id="g6124"><g
           id="g6126"><path
             id="path6128"
             d="M 256,0 C 114.609,0 0,114.609 0,256 0,397.391 114.609,512 256,512 397.391,512 512,397.391 512,256 512,114.609 397.391,0 256,0 Z m 0,472 C 136.703,472 40,375.297 40,256 40,136.703 136.703,40 256,40 c 119.297,0 216,96.703 216,216 0,119.297 -96.703,216 -216,216 z"
             inkscape:connector-curvature="0"
             style="fill:#a3a3a3" /></g></g><g
         id="g6132" /><g
         id="g6134" /><g
         id="g6136" /><g
         id="g6138" /><g
         id="g6140" /><g
         id="g6142" /><g
         id="g6144" /><g
         id="g6146" /><g
         id="g6148" /><g
         id="g6150" /><g
         id="g6152" /><g
         id="g6154" /><g
         id="g6156" /><g
         id="g6158" /><g
         id="g6160" /></g></g><g
     id="g9" /><g
     id="g11" /><g
     id="g13" /><g
     id="g15" /><g
     id="g17" /><g
     id="g19" /><g
     id="g21" /><g
     id="g23" /><g
     id="g25" /><g
     id="g27" /><g
     id="g29" /><g
     id="g31" /><g
     id="g33" /><g
     id="g35" /><g
     id="g37" /><g
     id="g4533"
     transform="matrix(0.49915542,0,0,0.49915542,-473.7716,374.43737)"><g
       id="g4489"
       style="stroke:none"
       transform="translate(1209.5864,-493.70873)"><g
         id="g4491"
         style="stroke:none"><g
           id="g4493"
           style="stroke:none"><path
             id="path4495"
             d="M 254.26,0 C 114.067,0 0,114.067 0,254.26 0,394.453 114.067,508.52 254.26,508.52 394.453,508.52 508.52,394.453 508.52,254.26 508.52,114.067 394.452,0 254.26,0 Z m 168.097,117.246 c 30.257,36.963 48.532,84.033 49.009,135.298 -7.183,-1.526 -78.916,-16.082 -151.221,-6.992 l -4.672,-11.219 C 310.96,223.749 306.129,213.229 301.076,202.868 381.39,170.1 417.781,123.443 422.357,117.246 Z M 254.26,37.408 c 55.174,0 105.613,20.69 143.943,54.729 -3.877,5.562 -36.55,49.485 -113.781,78.439 -35.596,-65.377 -75.038,-119.089 -81.045,-127.13 16.335,-3.94 33.371,-6.038 50.883,-6.038 z m -92.328,20.627 c 5.721,7.85 44.527,61.626 80.505,125.604 C 140.86,210.622 51.393,210.241 41.667,210.114 55.746,142.703 101.164,86.703 161.932,58.035 Z m -124.874,196.543 0.095,-6.643 c 9.503,0.222 114.767,1.557 223.177,-30.893 6.261,12.173 12.173,24.536 17.639,36.868 l -8.581,2.574 C 157.418,292.684 97.826,391.401 92.868,399.791 58.226,361.303 37.09,310.388 37.058,254.578 Z m 217.17,217.169 c -50.185,0 -96.46,-17.099 -133.296,-45.83 3.909,-7.946 47.896,-92.932 170.386,-135.616 l 1.43,-0.477 c 30.511,79.202 43.065,145.627 46.339,164.697 -26.03,11.092 -54.729,17.258 -84.859,17.226 z M 375.605,434.625 C 373.38,421.403 361.78,357.839 333.43,279.781 c 68.046,-10.901 127.829,6.96 135.266,9.312 -9.725,60.387 -44.336,112.606 -93.091,145.532 z"
             inkscape:connector-curvature="0"
             style="fill:#a3a3a3;stroke:none" /></g></g></g><g
       id="g4497" /><g
       id="g4499" /><g
       id="g4501" /><g
       id="g4503" /><g
       id="g4505" /><g
       id="g4507" /><g
       id="g4509" /><g
       id="g4511" /><g
       id="g4513" /><g
       id="g4515" /><g
       id="g4517" /><g
       id="g4519" /><g
       id="g4521" /><g
       id="g4523" /><g
       id="g4525" /></g></svg>