<?xml version="1.0" encoding="UTF-8" standalone="no"?>
<!-- Generator: Adobe Illustrator 16.0.0, SVG Export Plug-In . SVG Version: 6.00 Build 0)  -->

<svg
   xmlns:osb="http://www.openswatchbook.org/uri/2009/osb"
   xmlns:dc="http://purl.org/dc/elements/1.1/"
   xmlns:cc="http://creativecommons.org/ns#"
   xmlns:rdf="http://www.w3.org/1999/02/22-rdf-syntax-ns#"
   xmlns:svg="http://www.w3.org/2000/svg"
   xmlns="http://www.w3.org/2000/svg"
   xmlns:sodipodi="http://sodipodi.sourceforge.net/DTD/sodipodi-0.dtd"
   xmlns:inkscape="http://www.inkscape.org/namespaces/inkscape"
   version="1.1"
   id="Capa_1"
   x="0px"
   y="0px"
   width="512px"
   height="512px"
   viewBox="0 0 512 512"
   style="enable-background:new 0 0 512 512;"
   xml:space="preserve"
   inkscape:version="0.91 r13725"
   sodipodi:docname="github.svg"><metadata
     id="metadata43"><rdf:RDF><cc:Work
         rdf:about=""><dc:format>image/svg+xml</dc:format><dc:type
           rdf:resource="http://purl.org/dc/dcmitype/StillImage" /><dc:title></dc:title></cc:Work></rdf:RDF></metadata><defs
     id="defs41"><linearGradient
       id="linearGradient6006"
       osb:paint="solid"><stop
         style="stop-color:#a3a3a3;stop-opacity:1;"
         offset="0"
         id="stop6008" /></linearGradient></defs><sodipodi:namedview
     pagecolor="#ffffff"
     bordercolor="#666666"
     borderopacity="1"
     objecttolerance="10"
     gridtolerance="10"
     guidetolerance="10"
     inkscape:pageopacity="0"
     inkscape:pageshadow="2"
     inkscape:window-width="1686"
     inkscape:window-height="731"
     id="namedview39"
     showgrid="false"
     showguides="true"
     inkscape:guide-bbox="true"
     inkscape:zoom="0.4609375"
     inkscape:cx="180.0678"
     inkscape:cy="256"
     inkscape:window-x="175"
     inkscape:window-y="169"
     inkscape:window-maximized="0"
     inkscape:current-layer="Capa_1"><sodipodi:guide
       position="574.91525,368.81356"
       orientation="0,1"
       id="guide4554" /><sodipodi:guide
       position="384,175.72881"
       orientation="1,0"
       id="guide4556" /><sodipodi:guide
       position="572.74576,143.18644"
       orientation="0,1"
       id="guide4558" /><sodipodi:guide
       position="130.16949,236.47458"
       orientation="1,0"
       id="guide4560" /></sodipodi:namedview><g
     id="g3"
     style="fill:#ffccff;fill-opacity:1;stroke:#a3a3a3;stroke-opacity:0"><g
       id="g6168"
       transform="translate(0.5,-0.5)"><g
         id="g6124"><g
           id="g6126"><path
             id="path6128"
             d="M 256,0 C 114.609,0 0,114.609 0,256 0,397.391 114.609,512 256,512 397.391,512 512,397.391 512,256 512,114.609 397.391,0 256,0 Z m 0,472 C 136.703,472 40,375.297 40,256 40,136.703 136.703,40 256,40 c 119.297,0 216,96.703 216,216 0,119.297 -96.703,216 -216,216 z"
             inkscape:connector-curvature="0"
             style="fill:#a3a3a3" /></g></g><g
         id="g6132" /><g
         id="g6134" /><g
         id="g6136" /><g
         id="g6138" /><g
         id="g6140" /><g
         id="g6142" /><g
         id="g6144" /><g
         id="g6146" /><g
         id="g6148" /><g
         id="g6150" /><g
         id="g6152" /><g
         id="g6154" /><g
         id="g6156" /><g
         id="g6158" /><g
         id="g6160" /></g></g><g
     id="g9" /><g
     id="g11" /><g
     id="g13" /><g
     id="g15" /><g
     id="g17" /><g
     id="g19" /><g
     id="g21" /><g
     id="g23" /><g
     id="g25" /><g
     id="g27" /><g
     id="g29" /><g
     id="g31" /><g
     id="g33" /><g
     id="g35" /><g
     id="g37" /><g
     id="g6543"
     transform="matrix(0.50423729,0,0,0.50423729,126.33898,129.12488)"><g
       id="g6503"><path
         id="path6505"
         d="m 0,262.285 c 0,23.198 2.17,44.188 6.511,62.967 4.339,18.777 10.348,35.092 18.026,48.946 7.678,13.854 17.442,26.039 29.293,36.554 11.85,10.516 24.703,19.112 38.556,25.788 13.853,6.675 29.668,12.099 47.444,16.273 17.776,4.173 35.928,7.094 54.455,8.764 18.527,1.669 38.89,2.503 61.089,2.503 22.366,0 42.813,-0.834 61.341,-2.503 18.525,-1.67 36.721,-4.592 54.58,-8.764 17.857,-4.174 33.756,-9.598 47.693,-16.273 13.938,-6.677 26.873,-15.272 38.809,-25.788 11.936,-10.515 21.781,-22.702 29.543,-36.554 7.76,-13.854 13.811,-30.168 18.15,-48.946 4.34,-18.777 6.51,-39.769 6.51,-62.967 0,-41.395 -13.854,-77.197 -41.559,-107.408 1.502,-4.006 2.879,-8.554 4.131,-13.646 1.252,-5.091 2.42,-12.351 3.504,-21.781 1.086,-9.432 0.668,-20.321 -1.252,-32.673 -1.918,-12.353 -5.465,-24.953 -10.643,-37.807 l -3.754,-0.751 c -2.672,-0.5 -7.055,-0.375 -13.146,0.376 -6.091,0.751 -13.186,2.253 -21.279,4.507 -8.096,2.253 -18.527,6.594 -31.297,13.02 -12.77,6.426 -26.248,14.479 -40.436,24.16 -24.367,-6.677 -57.834,-10.016 -100.396,-10.016 -42.396,0 -75.778,3.339 -100.147,10.016 C 141.538,80.6 127.976,72.548 115.041,66.122 102.106,59.696 91.8,55.355 84.122,53.103 76.445,50.849 69.267,49.389 62.591,48.721 55.914,48.053 51.699,47.845 49.947,48.095 c -1.752,0.25 -3.13,0.543 -4.131,0.876 -5.174,12.854 -8.721,25.453 -10.64,37.807 -1.919,12.352 -2.337,23.242 -1.252,32.673 1.085,9.43 2.254,16.69 3.505,21.781 1.252,5.092 2.629,9.64 4.131,13.646 C 13.854,185.088 0,220.89 0,262.285 Z m 62.842,62.842 c 0,-24.035 10.933,-46.068 32.798,-66.097 6.509,-6.012 14.104,-10.559 22.783,-13.646 8.679,-3.089 18.485,-4.841 29.418,-5.259 10.933,-0.417 21.406,-0.334 31.421,0.251 10.014,0.584 22.366,1.377 37.054,2.378 14.688,1.002 27.374,1.502 38.056,1.502 10.683,0 23.368,-0.5 38.056,-1.502 14.689,-1.001 27.039,-1.794 37.057,-2.378 10.014,-0.585 20.486,-0.668 31.42,-0.251 10.934,0.418 20.738,2.17 29.42,5.259 8.678,3.088 16.271,7.635 22.781,13.646 21.865,19.695 32.799,41.728 32.799,66.097 0,14.354 -1.795,27.081 -5.385,38.182 -3.588,11.102 -8.178,20.405 -13.771,27.915 -5.592,7.511 -13.352,13.896 -23.283,19.153 -9.932,5.258 -19.611,9.305 -29.041,12.146 -9.432,2.837 -21.533,5.049 -36.305,6.635 -14.773,1.586 -27.959,2.546 -39.559,2.879 -11.602,0.334 -26.33,0.501 -44.189,0.501 -17.859,0 -32.589,-0.167 -44.189,-0.501 -11.6,-0.333 -24.787,-1.293 -39.558,-2.879 -14.771,-1.586 -26.872,-3.798 -36.303,-6.635 -9.43,-2.841 -19.111,-6.889 -29.042,-12.146 -9.931,-5.257 -17.693,-11.641 -23.284,-19.153 -5.591,-7.511 -10.182,-16.813 -13.77,-27.915 -3.59,-11.101 -5.384,-23.83 -5.384,-38.182 z M 320,320.08 c 0,26.51 14.326,48 32,48 17.674,0 32,-21.49 32,-48 0,-26.51 -14.326,-48 -32,-48 -17.674,0 -32,21.49 -32,48 z m -192,0 c 0,26.51 14.327,48 32,48 17.673,0 32,-21.49 32,-48 0,-26.51 -14.327,-48 -32,-48 -17.673,0 -32,21.49 -32,48 z"
         inkscape:connector-curvature="0"
         style="fill:#a3a3a3" /></g><g
       id="g6507" /><g
       id="g6509" /><g
       id="g6511" /><g
       id="g6513" /><g
       id="g6515" /><g
       id="g6517" /><g
       id="g6519" /><g
       id="g6521" /><g
       id="g6523" /><g
       id="g6525" /><g
       id="g6527" /><g
       id="g6529" /><g
       id="g6531" /><g
       id="g6533" /><g
       id="g6535" /></g></svg>