<?xml version="1.0" encoding="UTF-8" standalone="no"?>
<!-- Generator: Adobe Illustrator 16.0.0, SVG Export Plug-In . SVG Version: 6.00 Build 0)  -->

<svg
   xmlns:osb="http://www.openswatchbook.org/uri/2009/osb"
   xmlns:dc="http://purl.org/dc/elements/1.1/"
   xmlns:cc="http://creativecommons.org/ns#"
   xmlns:rdf="http://www.w3.org/1999/02/22-rdf-syntax-ns#"
   xmlns:svg="http://www.w3.org/2000/svg"
   xmlns="http://www.w3.org/2000/svg"
   xmlns:sodipodi="http://sodipodi.sourceforge.net/DTD/sodipodi-0.dtd"
   xmlns:inkscape="http://www.inkscape.org/namespaces/inkscape"
   version="1.1"
   id="Capa_1"
   x="0px"
   y="0px"
   width="512px"
   height="512px"
   viewBox="0 0 512 512"
   style="enable-background:new 0 0 512 512;"
   xml:space="preserve"
   inkscape:version="0.91 r13725"
   sodipodi:docname="googleplus.svg"><metadata
     id="metadata43"><rdf:RDF><cc:Work
         rdf:about=""><dc:format>image/svg+xml</dc:format><dc:type
           rdf:resource="http://purl.org/dc/dcmitype/StillImage" /><dc:title></dc:title></cc:Work></rdf:RDF></metadata><defs
     id="defs41"><linearGradient
       id="linearGradient6006"
       osb:paint="solid"><stop
         style="stop-color:#a3a3a3;stop-opacity:1;"
         offset="0"
         id="stop6008" /></linearGradient></defs><sodipodi:namedview
     pagecolor="#ffffff"
     bordercolor="#666666"
     borderopacity="1"
     objecttolerance="10"
     gridtolerance="10"
     guidetolerance="10"
     inkscape:pageopacity="0"
     inkscape:pageshadow="2"
     inkscape:window-width="1686"
     inkscape:window-height="731"
     id="namedview39"
     showgrid="false"
     showguides="true"
     inkscape:guide-bbox="true"
     inkscape:zoom="0.4609375"
     inkscape:cx="180.0678"
     inkscape:cy="256"
     inkscape:window-x="175"
     inkscape:window-y="169"
     inkscape:window-maximized="0"
     inkscape:current-layer="Capa_1"><sodipodi:guide
       position="574.91525,368.81356"
       orientation="0,1"
       id="guide4554" /><sodipodi:guide
       position="384,175.72881"
       orientation="1,0"
       id="guide4556" /><sodipodi:guide
       position="572.74576,143.18644"
       orientation="0,1"
       id="guide4558" /><sodipodi:guide
       position="130.16949,236.47458"
       orientation="1,0"
       id="guide4560" /></sodipodi:namedview><g
     id="g3"
     style="fill:#ffccff;fill-opacity:1;stroke:#a3a3a3;stroke-opacity:0"><g
       id="g6168"
       transform="translate(0.5,-0.5)"><g
         id="g6124"><g
           id="g6126"><path
             id="path6128"
             d="M 256,0 C 114.609,0 0,114.609 0,256 0,397.391 114.609,512 256,512 397.391,512 512,397.391 512,256 512,114.609 397.391,0 256,0 Z m 0,472 C 136.703,472 40,375.297 40,256 40,136.703 136.703,40 256,40 c 119.297,0 216,96.703 216,216 0,119.297 -96.703,216 -216,216 z"
             inkscape:connector-curvature="0"
             style="fill:#a3a3a3" /></g></g><g
         id="g6132" /><g
         id="g6134" /><g
         id="g6136" /><g
         id="g6138" /><g
         id="g6140" /><g
         id="g6142" /><g
         id="g6144" /><g
         id="g6146" /><g
         id="g6148" /><g
         id="g6150" /><g
         id="g6152" /><g
         id="g6154" /><g
         id="g6156" /><g
         id="g6158" /><g
         id="g6160" /></g></g><g
     id="g9" /><g
     id="g11" /><g
     id="g13" /><g
     id="g15" /><g
     id="g17" /><g
     id="g19" /><g
     id="g21" /><g
     id="g23" /><g
     id="g25" /><g
     id="g27" /><g
     id="g29" /><g
     id="g31" /><g
     id="g33" /><g
     id="g35" /><g
     id="g37" /><g
     id="g7114"
     transform="matrix(0.52488628,0,0,0.52488628,130.16948,128.04351)"><g
       id="g7038"><g
         id="g7040"><g
           id="g7042"><path
             id="path7044"
             d="m 377.472,224.957 -176.153,0 0,58.718 107.471,0 c -16.032,51.048 -63.714,88.077 -120.055,88.077 -69.492,0 -125.823,-56.335 -125.823,-125.824 0,-69.492 56.333,-125.823 125.823,-125.823 34.994,0 66.645,14.289 89.452,37.346 l 42.622,-46.328 C 286.769,77.768 240.159,57.194 188.735,57.194 84.5,57.193 0,141.693 0,245.928 c 0,104.235 84.5,188.737 188.736,188.737 91.307,0 171.248,-64.844 188.737,-150.989 l 0,-58.718 -0.001,-0.001 0,0 z"
             inkscape:connector-curvature="0"
             style="fill:#a3a3a3" /><polygon
             id="polygon7046"
             points="455.827,188.826 424.941,188.826 424.941,224.857 388.91,224.857 388.91,255.74 424.941,255.74 424.941,291.772 455.827,291.772 455.827,255.74 491.858,255.74 491.858,224.857 455.827,224.857 "
             style="fill:#a3a3a3" /></g></g><g
         id="g7048" /><g
         id="g7050" /><g
         id="g7052" /><g
         id="g7054" /><g
         id="g7056" /><g
         id="g7058" /><g
         id="g7060" /><g
         id="g7062" /><g
         id="g7064" /><g
         id="g7066" /><g
         id="g7068" /><g
         id="g7070" /><g
         id="g7072" /><g
         id="g7074" /><g
         id="g7076" /></g><g
       id="g7078" /><g
       id="g7080" /><g
       id="g7082" /><g
       id="g7084" /><g
       id="g7086" /><g
       id="g7088" /><g
       id="g7090" /><g
       id="g7092" /><g
       id="g7094" /><g
       id="g7096" /><g
       id="g7098" /><g
       id="g7100" /><g
       id="g7102" /><g
       id="g7104" /><g
       id="g7106" /></g></svg>