<?xml version="1.0" encoding="iso-8859-1"?>
<!-- Generator: Adobe Illustrator 16.0.0, SVG Export Plug-In . SVG Version: 6.00 Build 0)  -->
<!DOCTYPE svg PUBLIC "-//W3C//DTD SVG 1.1//EN" "http://www.w3.org/Graphics/SVG/1.1/DTD/svg11.dtd">
<svg xmlns="http://www.w3.org/2000/svg" xmlns:xlink="http://www.w3.org/1999/xlink" version="1.1" id="Capa_1" x="0px" y="0px" width="512px" height="512px" viewBox="0 0 512 512" style="enable-background:new 0 0 512 512;" xml:space="preserve">
<g>
	<path d="M256,0C114.609,0,0,114.609,0,256c0,141.391,114.609,256,256,256c141.391,0,256-114.609,256-256   C512,114.609,397.391,0,256,0z M256,472c-119.297,0-216-96.703-216-216S136.703,40,256,40s216,96.703,216,216S375.297,472,256,472z   " fill="#A3A3A3"/>
	<g>
		<path d="M212.077,284.562h48.297c46.188,0,84.781-28.47,95.125-76.892C367.202,152.891,327.905,128,294.107,128H178.983    l-50.984,234.156h67.531L212.077,284.562z M236.233,175.656h33.094c16.547,0,27.594,14.25,22.733,32.016    c-4.141,17.828-21.344,32.047-38.594,32.047h-31.734L236.233,175.656z" fill="#A3A3A3"/>
		<path d="M370.702,172.016c5.297,11.781,7.047,26.578,3.203,44.719c-10.359,48.422-48.953,76.891-95.142,76.891h-48.281    l-16.547,77.595h-56.75L154.39,384h67.547l16.547-77.562h48.282c46.188,0,84.78-28.469,95.141-76.905    C387.343,204.047,381.702,185.094,370.702,172.016z" fill="#A3A3A3"/>
	</g>
</g>
<g>
</g>
<g>
</g>
<g>
</g>
<g>
</g>
<g>
</g>
<g>
</g>
<g>
</g>
<g>
</g>
<g>
</g>
<g>
</g>
<g>
</g>
<g>
</g>
<g>
</g>
<g>
</g>
<g>
</g>
</svg>
