<?xml version="1.0" encoding="iso-8859-1"?>
<!-- Generator: Adobe Illustrator 16.0.0, SVG Export Plug-In . SVG Version: 6.00 Build 0)  -->
<!DOCTYPE svg PUBLIC "-//W3C//DTD SVG 1.1//EN" "http://www.w3.org/Graphics/SVG/1.1/DTD/svg11.dtd">
<svg xmlns="http://www.w3.org/2000/svg" xmlns:xlink="http://www.w3.org/1999/xlink" version="1.1" id="Capa_1" x="0px" y="0px" width="512px" height="512px" viewBox="0 0 513 513" style="enable-background:new 0 0 513 513;" xml:space="preserve">
<g>
	<path d="M256.5,0C114.833,0,0,114.833,0,256.5S114.833,513,256.5,513S513,398.167,513,256.5S398.167,0,256.5,0z M256.5,472.922   c-119.53,0-216.422-96.893-216.422-216.422c0-119.53,96.892-216.422,216.422-216.422c119.53,0,216.422,96.892,216.422,216.422   C472.922,376.029,376.03,472.922,256.5,472.922z" fill="#A3A3A3"/>
	<path d="M344.28,144.281c-32.61,0-58.113,21.104-69.15,60.822c12.022-5.699,33.848-8.673,35.554,11.178   c1.724,19.867-28.445,71.248-41.689,71.248c-13.213,0-23.045-58.097-26.489-84.648c-3.413-26.583-9.55-55.859-34.552-55.859   c-25.033,0-57.127,39.233-79.702,57.111l11.773,16.109c0,0,16.658-13.135,22.56-12.148c15.201,3.961,28.195,65.785,34.833,89.362   c6.606,23.593,14.685,71.265,47.311,71.265c52.729,0,140.023-130.833,140.023-173.543   C384.75,167.123,376.891,144.281,344.28,144.281z" fill="#A3A3A3"/>
</g>
<g>
</g>
<g>
</g>
<g>
</g>
<g>
</g>
<g>
</g>
<g>
</g>
<g>
</g>
<g>
</g>
<g>
</g>
<g>
</g>
<g>
</g>
<g>
</g>
<g>
</g>
<g>
</g>
<g>
</g>
</svg>
